<?xml version="1.0"?>
<svg id="office_map" xmlns="http://www.w3.org/2000/svg" width="100%" height="100%" viewBox="0 0 38587 15370">
    <g fill="none" stroke="black" stroke-width="10">
        <path d="M0,9720 L8460,9720 L8460,9650 L0,9650 L0,9720 Z "/>
        <path d="M8460,7440 L31257,7440 L31257,8340 L8460,8340 L8460,7440 Z "/>
        <path d="M8460,15370 L8980,15370 L8980,7440 L8460,7440 L8460,15370 Z "/>
        <path d="M3550,9720 L8460,9720 L8460,15370 L3550,15370 L3550,9720 Z "/>
        <path d="M3480,9720 L3550,9720 L3550,15370 L3480,15370 L3480,9720 Z "/>
        <path d="M0,9720 L3480,9720 L3480,15370 L0,15370 L0,9720 Z "/>
        <path d="M8980,8340 L15325,8340 L15325,15370 L8980,15370 L8980,8340 Z "/>
        <path d="M15325,8340 L15395,8340 L15395,15370 L15325,15370 L15325,8340 Z "/>
        <path d="M15395,8340 L20825,8340 L20825,15370 L15395,15370 L15395,8340 Z "/>
        <path d="M20825,8340 L20895,8340 L20895,15370 L20825,15370 L20825,8340 Z "/>ь
        <path d="M20895,8340 L26437,8340 L26437,15370 L20895,15370 L20895,8340 Z "/>
        <path d="M26437,8340 L26507,8340 L26507,15370 L26437,15370 L26437,8340 Z "/>
        <path d="M26507,8340 L30737,8340 L30737,15370 L26507,15370 L26507,8340 Z "/>
        <path d="M30737,8340 L31257,8340 L31257,15370 L30737,15370 L30737,8340 Z "/>
        <path d="M31257,15370 L38587,15370 L38587,11135 L31257,11135 L31257,15370 Z "/>
        <path d="M31257,11135 L38587,11135 L38587,11065 L31257,11065 L31257,11135 Z "/>
        <path d="M31257,11065 L38587,11065 L38587,7765 L31257,7765 L31257,11065 Z "/>
        <path d="M31257,7765 L38587,7765 L38587,7695 L31257,7695 L31257,7765 Z "/>
        <path d="M38587,7695 L33477,7695 L33477,3550 L38587,3550 L38587,7695 Z "/>
        <line x1="33477" y1="3550" x2="27087" y2="3550"/>
        <path d="M27017,3550 L25417,3550 L25417,6060 L27017,6060 L27017,3550 Z "/>
        <path d="M25417,3550 L25347,3550 L25347,6060 L25417,6060 L25417,3550 Z "/>
        <path d="M25347,3550 L23357,3550 L23357,6060 L25347,6060 L25347,3550 Z "/>
        <path d="M23357,6060 L27017,6060 L27017,6060 L23357,6060 L23357,6060 Z "/>
        <path d="M27017,6130 L23357,6130 L23357,6060 L27017,6060 L27017,6130 Z "/>
        <path d="M23357,6130 L23287,6130 L23287,3550 L23357,3550 L23357,6130 Z "/>
        <path d="M27017,6130 L27087,6130 L27087,3550 L27017,3550 L27017,6130 Z "/>
        <line x1="23287" y1="6130" x2="23287" y2="5220"/>
        <line x1="19817" y1="4620" x2="19817" y2="5220"/>
        <line x1="19817" y1="5220" x2="19817" y2="4620"/>
        <line x1="19817" y1="5220" x2="23287" y2="5220"/>
        <path d="M14557,4620 L19817,4620 L19817,0 L14557,0 L14557,4620 Z "/>
        <path d="M14557,4620 L19817,4620 L19817,4690 L14557,4690 L14557,4620 Z "/>
        <line x1="14557" y1="6290" x2="6920" y2="6290"/>
        <path d="M6920,6290 L14557,6290 L14557,6220 L6920,6220 L6920,6290 Z "/>
        <line x1="14557" y1="6220" x2="14557" y2="4690"/>
        <line x1="460" y1="8090" x2="460" y2="9650"/>
        <line x1="7000" y1="8090" x2="460" y2="8090"/>
        <line x1="7000" y1="8090" x2="7000" y2="6290"/>
        <path d="M5660,6220 L8150,6220 L8150,0 L5660,0 L5660,6220 Z "/>
        <path d="M10700,6220 L8400,6220 L8400,0 L10700,0 L10700,6220 Z "/>
        <path d="M8400,0 L8150,0 L8150,6220 L8400,6220 L8400,0 Z "/>
        <path d="M8980,15370 L8980,15370 L8980,15370 L8980,15370 L8980,15370 Z "/>
        <path d="M8980,15370 L12850,15370 L12850,11550 L8980,11550 L8980,15370 Z "/>
        <path d="M8980,11550 L12850,11550 L12850,11480 L8980,11480 L8980,11550 Z "/>
        <path d="M12850,15370 L12920,15370 L12920,11480 L12850,11480 L12850,15370 Z "/>
    </g>
</svg>
